<svg width="21" height="25" viewBox="0 0 21 25" fill="none" xmlns="http://www.w3.org/2000/svg">
<g id="Bell">
<path id="Vector" d="M3.33333 20.8335V10.3335C3.33333 8.47698 4.07083 6.6965 5.38359 5.38375C6.69634 4.07099 8.47682 3.3335 10.3333 3.3335C12.1898 3.3335 13.9703 4.07099 15.2831 5.38375C16.5958 6.6965 17.3333 8.47698 17.3333 10.3335V20.8335M3.33333 20.8335H17.3333M3.33333 20.8335H1M17.3333 20.8335H19.6667M9.16667 24.3335H11.5" stroke="black" stroke-linecap="round" stroke-linejoin="round"/>
<path id="Vector_2" d="M10.3337 3.33333C10.978 3.33333 11.5003 2.811 11.5003 2.16667C11.5003 1.52233 10.978 1 10.3337 1C9.68933 1 9.16699 1.52233 9.16699 2.16667C9.16699 2.811 9.68933 3.33333 10.3337 3.33333Z" stroke="black"/>
</g>
</svg>
