<svg width="23" height="23" viewBox="0 0 23 23" fill="none" xmlns="http://www.w3.org/2000/svg">
<g id="Vector">
<mask id="path-1-inside-1_3_91" fill="white">
<path d="M21.1684 22.0321L13.08 13.9437C12.4342 14.494 11.6914 14.9198 10.8519 15.2212C10.0123 15.5226 9.16839 15.6732 8.3202 15.6732C6.25181 15.6732 4.50117 14.9572 3.06828 13.5252C1.63539 12.0923 0.918945 10.3421 0.918945 8.27458C0.918945 6.20705 1.63453 4.45598 3.0657 3.02137C4.49772 1.5859 6.2475 0.868164 8.31503 0.868164C10.3834 0.868164 12.1349 1.58461 13.5695 3.0175C15.0041 4.45039 15.7214 6.20146 15.7214 8.27071C15.7214 9.16798 15.5626 10.0364 15.2448 10.876C14.9262 11.7156 14.5086 12.4337 13.9919 13.0305L22.0803 21.1176L21.1671 22.0321H21.1684ZM8.3202 14.3803C10.0338 14.3803 11.4809 13.7904 12.6615 12.6107C13.8412 11.431 14.4311 9.98389 14.4311 8.26941C14.4311 6.5558 13.8412 5.10914 12.6615 3.92941C11.4818 2.74969 10.0351 2.15983 8.32149 2.15983C6.60788 2.15983 5.16078 2.74969 3.9802 3.92941C2.80047 5.10914 2.21061 6.5558 2.21061 8.26941C2.21061 9.98302 2.80047 11.4297 3.9802 12.6094C5.15992 13.7891 6.60658 14.3803 8.3202 14.3803Z"/>
</mask>
<path d="M21.1684 22.0321L13.08 13.9437C12.4342 14.494 11.6914 14.9198 10.8519 15.2212C10.0123 15.5226 9.16839 15.6732 8.3202 15.6732C6.25181 15.6732 4.50117 14.9572 3.06828 13.5252C1.63539 12.0923 0.918945 10.3421 0.918945 8.27458C0.918945 6.20705 1.63453 4.45598 3.0657 3.02137C4.49772 1.5859 6.2475 0.868164 8.31503 0.868164C10.3834 0.868164 12.1349 1.58461 13.5695 3.0175C15.0041 4.45039 15.7214 6.20146 15.7214 8.27071C15.7214 9.16798 15.5626 10.0364 15.2448 10.876C14.9262 11.7156 14.5086 12.4337 13.9919 13.0305L22.0803 21.1176L21.1671 22.0321H21.1684ZM8.3202 14.3803C10.0338 14.3803 11.4809 13.7904 12.6615 12.6107C13.8412 11.431 14.4311 9.98389 14.4311 8.26941C14.4311 6.5558 13.8412 5.10914 12.6615 3.92941C11.4818 2.74969 10.0351 2.15983 8.32149 2.15983C6.60788 2.15983 5.16078 2.74969 3.9802 3.92941C2.80047 5.10914 2.21061 6.5558 2.21061 8.26941C2.21061 9.98302 2.80047 11.4297 3.9802 12.6094C5.15992 13.7891 6.60658 14.3803 8.3202 14.3803Z" fill="black"/>
<path d="M21.1684 22.0321V26.0321H30.8253L23.9968 19.2037L21.1684 22.0321ZM13.08 13.9437L15.9084 11.1153L13.297 8.50386L10.4859 10.899L13.08 13.9437ZM3.06828 13.5252L0.239852 16.3536L0.240702 16.3545L3.06828 13.5252ZM3.0657 3.02137L0.233872 0.196344L0.233871 0.196346L3.0657 3.02137ZM15.2448 10.876L18.9846 12.2952L18.9859 12.2918L15.2448 10.876ZM13.9919 13.0305L10.9679 10.4123L8.53099 13.2269L11.1637 15.8592L13.9919 13.0305ZM22.0803 21.1176L24.9107 23.944L27.7354 21.1154L24.9085 18.289L22.0803 21.1176ZM21.1671 22.0321L18.3367 19.2057L11.5199 26.0321H21.1671V22.0321ZM12.6615 12.6107L15.4889 15.4402L15.4899 15.4391L12.6615 12.6107ZM3.9802 3.92941L1.1528 1.09995L1.15177 1.10099L3.9802 3.92941ZM23.9968 19.2037L15.9084 11.1153L10.2516 16.7721L18.34 24.8605L23.9968 19.2037ZM10.4859 10.899C10.226 11.1203 9.90933 11.3096 9.5004 11.4564L12.2033 18.9859C13.4736 18.53 14.6423 17.8676 15.6741 16.9885L10.4859 10.899ZM9.5004 11.4564C9.07178 11.6103 8.68428 11.6732 8.3202 11.6732V19.6732C9.6525 19.6732 10.9528 19.4349 12.2033 18.9859L9.5004 11.4564ZM8.3202 11.6732C7.28727 11.6732 6.56118 11.3608 5.89586 10.6959L0.240702 16.3545C2.44116 18.5536 5.21635 19.6732 8.3202 19.6732V11.6732ZM5.89671 10.6968C5.23086 10.0309 4.91895 9.30538 4.91895 8.27458H-3.08105C-3.08105 11.3788 -1.96008 14.1537 0.239852 16.3536L5.89671 10.6968ZM4.91895 8.27458C4.91895 7.24216 5.23126 6.51426 5.89752 5.8464L0.233871 0.196346C-1.96221 2.39771 -3.08105 5.17194 -3.08105 8.27458H4.91895ZM5.89752 5.8464C6.56272 5.1796 7.28658 4.86816 8.31503 4.86816V-3.13184C5.20843 -3.13184 2.43273 -2.0078 0.233872 0.196344L5.89752 5.8464ZM8.31503 4.86816C9.34728 4.86816 10.0749 5.18056 10.7428 5.84762L16.3963 0.187372C14.1949 -2.01134 11.4196 -3.13184 8.31503 -3.13184V4.86816ZM10.7428 5.84762C11.4091 6.51313 11.7214 7.23871 11.7214 8.27071H19.7214C19.7214 5.1642 18.5992 2.38764 16.3963 0.187372L10.7428 5.84762ZM11.7214 8.27071C11.7214 8.68403 11.6504 9.07276 11.5038 9.46016L18.9859 12.2918C19.4747 11.0001 19.7214 9.65194 19.7214 8.27071H11.7214ZM11.505 9.4568C11.3302 9.91751 11.1383 10.2154 10.9679 10.4123L17.016 15.6487C17.8788 14.6521 18.5222 13.5137 18.9846 12.2952L11.505 9.4568ZM11.1637 15.8592L19.2521 23.9463L24.9085 18.289L16.8201 10.2018L11.1637 15.8592ZM19.2499 18.2912L18.3367 19.2057L23.9975 24.8585L24.9107 23.944L19.2499 18.2912ZM21.1671 26.0321H21.1684V18.0321H21.1671V26.0321ZM8.3202 18.3803C11.0624 18.3803 13.5361 17.3915 15.4889 15.4402L9.83409 9.78125C9.42572 10.1893 9.00518 10.3803 8.3202 10.3803V18.3803ZM15.4899 15.4391C17.4427 13.4864 18.4311 11.012 18.4311 8.26941H10.4311C10.4311 8.95582 10.2398 9.37558 9.83306 9.78228L15.4899 15.4391ZM18.4311 8.26941C18.4311 5.52713 17.4422 3.05332 15.4899 1.10099L9.83306 6.75784C10.2402 7.16496 10.4311 7.58448 10.4311 8.26941H18.4311ZM15.4899 1.10099C13.5376 -0.851343 11.0638 -1.84017 8.32149 -1.84017V6.15983C9.00643 6.15983 9.42595 6.35073 9.83306 6.75784L15.4899 1.10099ZM8.32149 -1.84017C5.57925 -1.84017 3.1056 -0.851418 1.1528 1.09995L6.80759 6.75887C7.21596 6.3508 7.6365 6.15983 8.32149 6.15983V-1.84017ZM1.15177 1.10099C-0.800562 3.05332 -1.78939 5.52713 -1.78939 8.26941H6.21061C6.21061 7.58447 6.40151 7.16496 6.80862 6.75784L1.15177 1.10099ZM-1.78939 8.26941C-1.78939 11.0117 -0.800562 13.4855 1.15177 15.4378L6.80862 9.78099C6.40151 9.37387 6.21061 8.95435 6.21061 8.26941H-1.78939ZM1.15177 15.4378C3.10256 17.3886 5.57568 18.3803 8.3202 18.3803V10.3803C7.63749 10.3803 7.21728 10.1896 6.80862 9.78099L1.15177 15.4378Z" fill="black" mask="url(#path-1-inside-1_3_91)"/>
</g>
</svg>
